<svg xmlns="http://www.w3.org/2000/svg" viewBox="0 0 128 128"><defs><linearGradient id="b" x1="0" x2="1" y1="0" y2="1"><stop stop-color="#b8793b"/><stop offset="1" stop-color="#6d3e24"/></linearGradient><linearGradient id="f" x1="0" x2="1"><stop stop-color="#ffe36b"/><stop offset="1" stop-color="#e7a918"/></linearGradient></defs><path d="M42 28c0-13 9-21 22-21s22 8 22 21" fill="none" stroke="#4b2b1b" stroke-width="8" stroke-linecap="round"/><rect x="24" y="25" width="80" height="91" rx="24" fill="url(#b)" stroke="#4b2b1b" stroke-width="5"/><path d="M31 49h66v27c0 11-8 19-19 19H50c-11 0-19-8-19-19z" fill="#d59a55" stroke="#4b2b1b" stroke-width="4"/><path d="M52 57c17-7 30-20 35-36-2 19-12 38-30 49l-8 4 3-17z" fill="url(#f)" stroke="#8d6413" stroke-width="2"/><circle cx="83" cy="78" r="12" fill="#5dc5c9" stroke="#2d6e71" stroke-width="4"/><path d="M83 68v10l7 4" fill="none" stroke="#fff" stroke-width="3" stroke-linecap="round"/><path d="M23 55c-12 5-15 18-12 31M105 55c12 5 15 18 12 31" fill="none" stroke="#4b2b1b" stroke-width="6" stroke-linecap="round"/></svg>