<svg xmlns="http://www.w3.org/2000/svg" viewBox="0 0 128 128"><path d="M16 27c18-6 34-4 48 7v75c-14-11-30-13-48-7z" fill="#5dc5c9" stroke="#315e61" stroke-width="5"/><path d="M112 27c-18-6-34-4-48 7v75c14-11 30-13 48-7z" fill="#ffd867" stroke="#8e6b17" stroke-width="5"/><path d="M64 34v75" stroke="#6e4d2b" stroke-width="5"/><path d="M30 46h21M30 59h21M77 46h21M77 59h21" stroke="#fff" stroke-width="4" stroke-linecap="round"/><path d="M84 80c8-3 14-9 18-17-1 10-6 20-16 26l-7 4 5-13z" fill="#fff3a0" stroke="#8e6b17" stroke-width="2"/></svg>