<svg xmlns="http://www.w3.org/2000/svg" viewBox="0 0 128 128"><path d="M12 27 42 17l42 12 32-11v83L84 112 42 100 12 111z" fill="#f6e7aa" stroke="#7d5a2d" stroke-width="5"/><path d="M42 18v82M84 29v83" fill="none" stroke="#b08a4e" stroke-width="4"/><path d="M28 73c10-19 19-26 31-21 12 5 15 21 29 17 8-2 13-8 18-15" fill="none" stroke="#e76f51" stroke-width="5" stroke-dasharray="7 7" stroke-linecap="round"/><circle cx="28" cy="73" r="6" fill="#5dc5c9"/><path d="m102 47 5 10 11 2-8 8 2 11-10-5-10 5 2-11-8-8 11-2z" fill="#ffd84d" stroke="#7d5a2d" stroke-width="3"/></svg>